<svg xmlns="http://www.w3.org/2000/svg" width="250" height="200" viewBox="0 0 250 200" xmlns:xlink="http://www.w3.org/1999/xlink"><defs><path id="b" d="M70.726 171.933s-.439 7.55-.68 11.321c-.085 1.333-.156 3.954 1.768 5.004 1.924 1.05 3.774.056 4.881-.654 0 0 31.236-20.377 32.582-21.323a43.495 43.495 0 0 0 14.076-16.507h78.339c23.918 0 43.308-19.39 43.308-43.308 0-21.639-15.87-39.571-36.606-42.793-3.221-20.735-21.154-36.605-42.792-36.605-1.038 0-2.067.036-3.086.108C149.638 10.638 129.539 0 106.955 0c-36.958 0-67.262 28.488-70.15 64.702C18.47 69.742 5 86.531 5 106.466c0 22.94 17.836 41.715 40.397 43.212 5.058 10.445 14.188 18.551 25.329 22.255z"/><filter id="a" width="107.9%" height="110.1%" x="-4%" y="-2.9%" filterUnits="objectBoundingBox"><feOffset dy="4" in="SourceAlpha" result="shadowOffsetOuter1"/><feGaussianBlur stdDeviation="2.5" in="shadowOffsetOuter1" result="shadowBlurOuter1"/><feColorMatrix values="0 0 0 0 0 0 0 0 0 0 0 0 0 0 0 0 0 0 0.2 0" in="shadowBlurOuter1"/></filter><path id="d" d="M165.602 34.286c19.932 0 36.09 16.158 36.09 36.09 19.932 0 36.09 16.158 36.09 36.09 0 19.932-16.158 36.09-36.09 36.09H118.54c-4.869 14.175-18.315 24.361-34.142 24.361-15.826 0-29.272-10.186-34.14-24.36h-1.95c-19.932 0-36.09-16.159-36.09-36.09 0-19.933 16.158-36.091 36.09-36.091 0-32.39 26.257-58.647 58.647-58.647 17.296 0 32.844 7.488 43.578 19.399-12.164 6.82-20.776 21.525-21.016 38.626.267-15.837 10.736-29.19 25.118-33.772a36.07 36.07 0 0 1 10.967-1.696z"/><filter id="c" width="107.5%" height="111%" x="-3.8%" y="-4.2%" filterUnits="objectBoundingBox"><feOffset dy="2" in="SourceAlpha" result="shadowOffsetOuter1"/><feGaussianBlur stdDeviation="2.5" in="shadowOffsetOuter1" result="shadowBlurOuter1"/><feColorMatrix values="0 0 0 0 0 0 0 0 0 0 0 0 0 0 0 0 0 0 0.2 0" in="shadowBlurOuter1"/></filter></defs><g fill="none" fill-rule="evenodd"><use fill="#000" filter="url(#a)" xlink:href="#b"/><use fill="#C8DBFF" xlink:href="#b"/><use fill="#000" filter="url(#c)" xlink:href="#d"/><use fill="#FFF" xlink:href="#d"/><path fill="#36C" d="M35.321 128.85H28.42V96.365h6.902v32.487zm-7.313-41.092c0-1.234.337-2.184 1.013-2.85.675-.665 1.64-.998 2.893-.998 1.214 0 2.16.333 2.835.998.675.666 1.013 1.616 1.013 2.85 0 1.175-.338 2.1-1.013 2.775-.676.676-1.62 1.014-2.835 1.014-1.253 0-2.218-.338-2.893-1.014-.676-.675-1.013-1.6-1.013-2.775zM68.54 128.85h-6.932v-19.974c0-2.507-.504-4.377-1.513-5.61-1.008-1.234-2.61-1.85-4.802-1.85-2.918 0-5.052.86-6.404 2.584-1.35 1.723-2.026 4.612-2.026 8.665v16.185H39.96V96.364h5.405l.969 4.26h.352c.98-1.548 2.37-2.742 4.171-3.584 1.802-.842 3.8-1.263 5.992-1.263 7.794 0 11.691 3.965 11.691 11.896v21.178zm31.809-32.487v3.79l-5.552 1.027c.51.686.93 1.528 1.263 2.526.333.999.5 2.056.5 3.173 0 3.348-1.156 5.982-3.467 7.901-2.31 1.92-5.492 2.879-9.546 2.879a15.48 15.48 0 0 1-2.82-.235c-1.488.92-2.232 1.997-2.232 3.23 0 .745.348 1.303 1.043 1.675.695.372 1.973.558 3.833.558h5.669c3.584 0 6.305.764 8.166 2.291 1.86 1.528 2.79 3.73 2.79 6.61 0 3.68-1.517 6.52-4.553 8.517-3.035 1.998-7.421 2.996-13.159 2.996-4.425 0-7.803-.783-10.134-2.35-2.33-1.566-3.495-3.798-3.495-6.697 0-1.997.631-3.676 1.895-5.037 1.263-1.361 3.03-2.306 5.301-2.835-.92-.391-1.679-1.023-2.276-1.894-.597-.872-.896-1.787-.896-2.746 0-1.215.343-2.243 1.028-3.085.686-.842 1.704-1.674 3.055-2.496-1.684-.725-3.05-1.905-4.098-3.54-1.047-1.635-1.571-3.55-1.571-5.742 0-3.525 1.111-6.257 3.334-8.195 2.222-1.94 5.39-2.908 9.502-2.908.92 0 1.885.063 2.893.19 1.009.128 1.768.26 2.277.397h11.25zm-25.526 37.539c0 1.488.671 2.634 2.012 3.437 1.342.803 3.227 1.204 5.655 1.204 3.76 0 6.56-.539 8.4-1.616 1.841-1.077 2.762-2.506 2.762-4.288 0-1.41-.505-2.414-1.513-3.01-1.009-.598-2.884-.897-5.625-.897h-5.229c-1.977 0-3.549.465-4.714 1.396-1.165.93-1.748 2.188-1.748 3.774zm2.967-27.023c0 2.036.524 3.603 1.572 4.7 1.047 1.096 2.55 1.644 4.508 1.644 3.995 0 5.992-2.134 5.992-6.403 0-2.115-.494-3.745-1.483-4.89-.989-1.146-2.492-1.72-4.509-1.72-1.997 0-3.51.569-4.538 1.705-1.028 1.135-1.542 2.79-1.542 4.964zm37.536 22.558c-5.052 0-9.002-1.473-11.852-4.42-2.849-2.948-4.273-7.006-4.273-12.176 0-5.306 1.321-9.477 3.965-12.513 2.644-3.035 6.276-4.552 10.897-4.552 4.289 0 7.677 1.302 10.164 3.906 2.487 2.605 3.73 6.188 3.73 10.75v3.731h-21.648c.098 3.153.95 5.576 2.555 7.27 1.606 1.694 3.868 2.54 6.786 2.54 1.919 0 3.706-.18 5.36-.543 1.655-.362 3.432-.964 5.331-1.806v5.61a21.194 21.194 0 0 1-5.11 1.704c-1.724.333-3.692.5-5.905.5zm-1.263-28.433c-2.193 0-3.95.695-5.272 2.085-1.322 1.39-2.11 3.418-2.365 6.08h14.746c-.04-2.682-.686-4.714-1.939-6.094-1.253-1.38-2.976-2.071-5.17-2.071zm45.086 27.846h-6.932v-19.974c0-2.507-.505-4.377-1.513-5.61-1.008-1.234-2.61-1.85-4.803-1.85-2.917 0-5.052.86-6.403 2.584-1.351 1.723-2.027 4.612-2.027 8.665v16.185h-6.902V96.364h5.404l.97 4.26h.352c.98-1.548 2.37-2.742 4.171-3.584 1.802-.842 3.799-1.263 5.992-1.263 7.794 0 11.69 3.965 11.69 11.896v21.178zm11.277 0h-6.903V96.364h6.903v32.487zm-7.314-41.093c0-1.234.337-2.184 1.013-2.85.676-.665 1.64-.998 2.893-.998 1.214 0 2.16.333 2.835.998.675.666 1.013 1.616 1.013 2.85 0 1.175-.338 2.1-1.013 2.775-.676.676-1.62 1.014-2.835 1.014-1.253 0-2.217-.338-2.893-1.014-.676-.675-1.013-1.6-1.013-2.775zm32.278 41.093l-1.38-4.524h-.235c-1.567 1.978-3.143 3.324-4.73 4.04-1.586.714-3.622 1.071-6.109 1.071-3.192 0-5.684-.861-7.475-2.585-1.792-1.723-2.688-4.16-2.688-7.313 0-3.35 1.243-5.875 3.73-7.579 2.487-1.703 6.276-2.634 11.368-2.79l5.61-.176v-1.734c0-2.075-.485-3.627-1.454-4.655-.97-1.028-2.472-1.542-4.509-1.542-1.664 0-3.26.245-4.788.734a36.131 36.131 0 0 0-4.406 1.733l-2.232-4.935c1.762-.92 3.691-1.62 5.787-2.1 2.095-.48 4.073-.72 5.933-.72 4.132 0 7.25.901 9.355 2.703 2.105 1.801 3.158 4.631 3.158 8.489v21.883h-4.935zm-10.28-4.7c2.506 0 4.518-.7 6.036-2.1 1.517-1.4 2.276-3.363 2.276-5.89v-2.82l-4.17.177c-3.251.117-5.616.66-7.094 1.63-1.479.97-2.218 2.453-2.218 4.45 0 1.45.43 2.57 1.292 3.363.862.794 2.154 1.19 3.878 1.19zm31.72-.294c1.684 0 3.368-.264 5.052-.793v5.2c-.763.332-1.747.611-2.952.836a20.338 20.338 0 0 1-3.745.338c-6.54 0-9.81-3.446-9.81-10.34v-17.506h-4.436v-3.054l4.759-2.526 2.35-6.874h4.259v7.226h9.252v5.228h-9.252v17.39c0 1.664.416 2.893 1.248 3.686.832.793 1.924 1.19 3.275 1.19zm4.087-72.662h.414c.296 0 .52-.07.672-.21.152-.14.228-.34.228-.6 0-.288-.073-.49-.219-.603-.146-.114-.377-.171-.693-.171h-.402v1.584zm2.454-.834c0 .684-.306 1.15-.918 1.398l1.422 2.381h-1.266l-1.152-2.076h-.54v2.076h-1.133v-5.417h1.571c.696 0 1.206.136 1.53.408.324.272.486.682.486 1.23zm-6.34 1.068c0-.8.199-1.55.599-2.25a4.4 4.4 0 0 1 1.65-1.656 4.449 4.449 0 0 1 2.261-.606c.8 0 1.55.2 2.25.6.7.4 1.252.95 1.656 1.65.404.7.606 1.454.606 2.262 0 .787-.194 1.527-.582 2.22a4.425 4.425 0 0 1-1.632 1.661c-.7.416-1.466.624-2.298.624a4.42 4.42 0 0 1-2.291-.621 4.425 4.425 0 0 1-1.635-1.659 4.46 4.46 0 0 1-.585-2.225zm.737 0c0 .68.169 1.31.507 1.892.338.582.799 1.041 1.383 1.377a3.715 3.715 0 0 0 1.883.504c.68 0 1.312-.171 1.896-.513a3.75 3.75 0 0 0 1.377-1.38c.334-.578.5-1.205.5-1.88 0-.672-.168-1.301-.506-1.887a3.694 3.694 0 0 0-1.386-1.383 3.72 3.72 0 0 0-1.88-.504 3.7 3.7 0 0 0-1.875.498 3.75 3.75 0 0 0-1.383 1.374 3.68 3.68 0 0 0-.516 1.902z"/></g></svg>